<?xml version="1.0" encoding="utf-8"?>
<!DOCTYPE svg PUBLIC "-//W3C//DTD SVG 1.1//EN" "http://www.w3.org/Graphics/SVG/1.1/DTD/svg11.dtd">
<svg style="width:308px;height:308px;" version="1.1" id="图形" xmlns="http://www.w3.org/2000/svg" xmlns:xlink="http://www.w3.org/1999/xlink" x="0px" y="0px" width="1024px" height="1024px" viewBox="0 0 1024 1024" enable-background="new 0 0 1024 1024" xml:space="preserve">
  <path class="svgpath" data-index="path_0" fill="#ffffff" d="M866.407264 389.658627 698.384479 389.658627 585.768609 389.658627 461.03884 389.658627 313.422827 389.658627 180.398138 389.658627c-17.174148 0-31.179117 15.72003-31.179117 34.997072l0 104.989169c0 19.278065 14.004969 34.998095 31.179117 34.998095l62.36335 0c-17.175171 0-31.18014 15.72003-31.18014 34.998095l0 314.970578c0 19.277042 14.004969 34.998095 31.18014 34.998095l70.660316 0 147.616012 0 124.729769 0 112.617917 0 105.657388 0c17.173125 0 31.18321-15.72003 31.18321-34.998095L835.226101 599.641059c0-19.277042-14.009062-34.998095-31.18321-34.998095l62.365396 0c17.175171 0 31.181163-15.719007 31.181163-34.997072L897.58945 424.655699C897.588427 405.379681 883.583458 389.658627 866.407264 389.658627zM461.03884 424.656723l124.729769 0L585.768609 564.642964 461.03884 564.642964 461.03884 424.656723zM461.03884 914.611637 461.03884 599.641059l124.729769 0 0 314.970578L461.03884 914.611637zM333.483722 349.9523l76.552513 0 61.877279 0c4.985548 2.739391 10.419304 4.712325 16.492626 4.712325l69.992097 0c6.074346 0 11.508102-1.973958 16.493649-4.712325l71.080895 0 76.556607 0 7.779174 0 0.976234-0.972141c53.798277-9.705036 242.490823-92.999091 88.580454-246.913553-45.660946-45.659923-83.45983-32.19526-106.59883-3.180436-49.204655 61.686944-103.696734 129.185244-129.832997 161.506371-6.369058-6.567579-15.20019-10.721179-25.035186-10.721179L488.407164 249.671363c-6.883781 0-12.9438 2.521426-18.367323 5.975085l-3.471055-2.687202c-27.859511-34.471093-77.993329-96.621595-123.821073-154.073074-23.140023-29.014824-60.937884-42.478464-106.597807 3.180436C72.102666 266.11794 297.290405 349.9523 333.483722 349.9523z" />

</svg>
