<?xml version="1.0" encoding="utf-8"?>
<!DOCTYPE svg PUBLIC "-//W3C//DTD SVG 1.1//EN" "http://www.w3.org/Graphics/SVG/1.1/DTD/svg11.dtd">
<svg style="width:308px;height:308px;" version="1.1" id="图形" xmlns="http://www.w3.org/2000/svg" xmlns:xlink="http://www.w3.org/1999/xlink" x="0px" y="0px" width="1024px" height="1024px" viewBox="0 0 1024 1024" enable-background="new 0 0 1024 1024" xml:space="preserve">
  <path class="svgpath" data-index="path_0" fill="#ffffff" d="M517.578 212.581c23.615 0 42.761 19.144 42.761 42.761s-19.146 42.758-42.761 42.758c-23.617 0-42.763-19.142-42.763-42.758 0-23.618 19.146-42.761 42.763-42.761zM506.888 362.243l21.378 0c17.713 0 32.072 14.357 32.072 32.07l0 384.842c0 17.713-14.359 32.072-32.072 32.072l-21.378 0c-17.713 0-32.072-14.359-32.072-32.072l0-384.842c0-17.713 14.359-32.07 32.072-32.07zM517.578 105.679c223.991 0 406.222 182.23 406.222 406.225 0 223.994-182.23 406.225-406.222 406.225-223.993 0-406.225-182.23-406.225-406.225 0-223.995 182.232-406.225 406.225-406.225M517.578 62.919c-247.969 0-448.985 201.019-448.985 448.986 0 247.966 201.016 448.985 448.985 448.985 247.967 0 448.983-201.019 448.983-448.985 0-247.968-201.017-448.986-448.983-448.986l0 0z" />

</svg>
