<?xml version="1.0" encoding="utf-8"?>
<!DOCTYPE svg PUBLIC "-//W3C//DTD SVG 1.1//EN" "http://www.w3.org/Graphics/SVG/1.1/DTD/svg11.dtd">
<svg style="width:308px;height:308px;" version="1.1" id="图形" xmlns="http://www.w3.org/2000/svg" xmlns:xlink="http://www.w3.org/1999/xlink" x="0px" y="0px" width="1024px" height="1024px" viewBox="0 0 1024 1024" enable-background="new 0 0 1024 1024" xml:space="preserve">
  <path class="svgpath" data-index="path_0" fill="#ffffff" d="M114.071524 88.007403l-8.879228 0c0 0-31.963992-15.390525 0-38.476313l8.879228 0 821.603337 0 13.613042 0c0 0 30.780027 20.126386 0 38.476313-3.846608 0.294712-9.766434 0-9.766434 0L114.071524 88.007403z" />
<path class="svgpath" data-index="path_1" fill="#ffffff" d="M904.891763 141.277654c0.591471-13.614066-15.389502-15.389502-15.389502-15.389502l-8.582469 0L172.379511 125.888152c0 0 0 0-7.398504 0-16.870226 2.663666-16.278755 15.093766-16.278755 15.093766l0 9.469676L149.219022 629.323079c0 0 0.164752 2.663666 0 11.320836-1.556449 14.282285 16.650215 16.650215 16.650215 16.650215l8.879228 0L877.813035 657.294131c0 0 9.544377 0.677429 12.4301 0 11.984962-3.109828 14.646582-14.648628 14.646582-14.648628l0-11.098779L904.889717 150.45364C904.891763 150.45364 904.299269 154.892743 904.891763 141.277654zM867.012038 619.560738 185.697841 619.560738 185.697841 163.181523l681.314197 0L867.012038 619.560738z" />
<path class="svgpath" data-index="path_2" fill="#ffffff" d="M505.342882 691.037652l6.214539-8.436136c0 0 12.4301-18.200524 30.634718 0 3.107781 3.134387 6.213515 8.436136 6.213515 8.436136l138.955772 209.986525 8.880251 14.650675c0 0 3.551896 32.852222-28.414143 21.753443l-8.433066-10.211573L530.202059 734.544539c0 0-3.106758-10.211573-7.546883-0.889253-6.65763 10.775414-129.635499 195.339944-129.635499 195.339944l-9.320273 10.723226c0 0-31.522947 7.033184-26.63666-24.930809 1.38658-6.405897 7.100722-10.654664 7.100722-10.654664" />

</svg>
