<?xml version="1.0" encoding="utf-8"?>
<!DOCTYPE svg PUBLIC "-//W3C//DTD SVG 1.1//EN" "http://www.w3.org/Graphics/SVG/1.1/DTD/svg11.dtd">
<svg style="width:308px;height:308px;" version="1.1" id="图形" xmlns="http://www.w3.org/2000/svg" xmlns:xlink="http://www.w3.org/1999/xlink" x="0px" y="0px" width="1024px" height="1024px" viewBox="0 0 1024 1024" enable-background="new 0 0 1024 1024" xml:space="preserve">
  <path class="svgpath" data-index="path_0" fill="#ffffff" d="M1007.021105 389.666133 625.595733 771.091505C624.259657 772.934705 622.894324 774.768152 621.236419 776.426057 604.19901 793.463467 576.570514 793.463467 559.533105 776.426057L413.393676 630.296381C396.356267 613.249219 396.356267 585.630476 413.393676 568.593067 430.431086 551.555657 458.059581 551.555657 475.09699 568.593067L589.531429 683.027505 944.956952 327.601981C962.101638 310.457295 989.886171 310.457295 1007.021105 327.601981 1024.16579 344.736914 1024.16579 372.521448 1007.021105 389.666133ZM584.94781 594.895238 596.367848 594.895238 590.662705 600.600381 584.94781 594.895238ZM497.0496 507.12381 484.459276 494.543238C461.570438 471.664152 424.462629 471.664152 401.583543 494.543238L389.002971 507.12381 160.914286 507.12381C136.679619 507.12381 117.028571 526.765105 117.028571 551.009524 117.028571 575.24419 136.679619 594.895238 160.914286 594.895238L322.569752 594.895238C321.682286 610.95741 327.153371 627.3024 339.421867 639.580648L441.022171 741.180952 160.914286 741.180952C136.679619 741.180952 117.028571 760.822248 117.028571 785.066667 117.028571 809.301333 136.679619 828.952381 160.914286 828.952381L467.792457 828.952381 518.485333 879.645257C541.344914 902.504838 578.39421 902.504838 601.244038 879.645257L651.936914 828.952381 716.8 828.952381C741.034667 828.952381 760.685714 809.301333 760.685714 785.066667 760.685714 767.512381 750.309181 752.483962 735.427048 745.462248L877.714286 603.17501 877.714286 896C877.714286 966.69501 828.591543 1024 768 1024L109.714286 1024C49.122743 1024 0 966.69501 0 896L0 128C0 57.30499 49.122743 0 109.714286 0L768 0C828.591543 0 877.714286 57.30499 877.714286 128L877.714286 313.5488 684.139276 507.12381 497.0496 507.12381ZM760.685714 316.952381C760.685714 292.717714 741.034667 273.066667 716.8 273.066667L160.914286 273.066667C136.679619 273.066667 117.028571 292.717714 117.028571 316.952381 117.028571 341.187048 136.679619 360.838095 160.914286 360.838095L716.8 360.838095C741.034667 360.838095 760.685714 341.187048 760.685714 316.952381Z" />

</svg>
