<?xml version="1.0" encoding="utf-8"?>
<!DOCTYPE svg PUBLIC "-//W3C//DTD SVG 1.1//EN" "http://www.w3.org/Graphics/SVG/1.1/DTD/svg11.dtd">
<svg style="width:308px;height:308px;" version="1.1" id="图形" xmlns="http://www.w3.org/2000/svg" xmlns:xlink="http://www.w3.org/1999/xlink" x="0px" y="0px" width="1024px" height="1024px" viewBox="0 0 1024 1024" enable-background="new 0 0 1024 1024" xml:space="preserve">
  <path class="svgpath" data-index="path_0" fill="#ffffff" d="M722.729445 294.314119c0 126.187981-123.902938 228.483808-213.444277 228.483808-85.249593 0-213.444277-102.295827-213.444277-228.483808s70.934562-228.483808 213.444277-228.483808C647.045719 65.830311 722.729445 168.126138 722.729445 294.314119zM518.791683 598.736457l20.938891-20.059871-12.475126-19.759019-34.658358 0-13.757329 19.759019 22.221094 20.059871-37.7293 144.667867 31.020504 44.712341 31.521924 0 29.364795-44.712341L518.791683 598.736457zM838.189084 811.875788c0 126.270868-147.254785 141.283794-328.904938 141.283794-181.648107 0-328.904938-15.012925-328.904938-141.283794 0-98.867752 90.273003-270.424013 216.643132-302.320467 35.032888-8.844435 72.837912 416.310637 112.261806 416.310637 39.915082 0 78.166267-425.036369 113.562429-415.981133C748.537228 542.027897 838.189084 713.350844 838.189084 811.875788zM742.114958 695.253674l-92.804662 0 0 34.332946 92.804662 0L742.114958 695.253674z" />

</svg>
