<?xml version="1.0" encoding="utf-8"?>
<!DOCTYPE svg PUBLIC "-//W3C//DTD SVG 1.1//EN" "http://www.w3.org/Graphics/SVG/1.1/DTD/svg11.dtd">
<svg style="width:308px;height:308px;" version="1.1" id="图形" xmlns="http://www.w3.org/2000/svg" xmlns:xlink="http://www.w3.org/1999/xlink" x="0px" y="0px" width="1160px" height="1024px" viewBox="0 0 1160 1024" enable-background="new 0 0 1160 1024" xml:space="preserve">
  <path class="svgpath" data-index="path_0" fill="#ffffff" d="M912.34519 888.278089c-37.432608 0-67.88392 30.359453-67.88392 67.837991s30.451312 67.88392 67.88392 67.88392c37.432608 0 67.837991-30.405382 67.837991-67.88392S949.777798 888.278089 912.34519 888.278089" />
<path class="svgpath" data-index="path_1" fill="#ffffff" d="M478.035075 888.278089c-37.386679 0-67.88392 30.359453-67.88392 67.837991s30.497242 67.88392 67.88392 67.88392c37.432608 0 67.837991-30.405382 67.837991-67.88392S515.467683 888.278089 478.035075 888.278089" />
<path class="svgpath" data-index="path_2" fill="#ffffff" d="M319.669881 663.223144 252.796412 247.46858C210.081902 2.709845 2.250549 0 0.183718 0L0 64.714779c6.338282 0.091859 155.839067 4.041803 188.816506 193.501323l66.551962 412.080197c3.398789 55.299215 41.56627 159.972729 161.855842 159.972729l635.849114 0 0-64.852568L417.22431 765.416461C329.6366 765.416461 320.772191 676.313075 319.669881 663.223144" />
<path class="svgpath" data-index="path_3" fill="#ffffff" d="M1068.689482 218.900381c-121.437811 0-645.907692-64.714779-645.907692-64.714779s-129.613277-26.363579-107.658937 113.446064c21.816551 139.763714 54.79399 337.398699 54.79399 337.398699s26.501368 106.510697 137.880601 106.510697l453.600538 0c101.274725 0 136.594573-122.264544 136.594573-122.264544l56.723032-266.529356C1154.715586 322.747163 1190.219152 218.900381 1068.689482 218.900381" />

</svg>
