<?xml version="1.0" encoding="utf-8"?>
<!DOCTYPE svg PUBLIC "-//W3C//DTD SVG 1.1//EN" "http://www.w3.org/Graphics/SVG/1.1/DTD/svg11.dtd">
<svg style="width:308px;height:308px;" version="1.1" id="图形" xmlns="http://www.w3.org/2000/svg" xmlns:xlink="http://www.w3.org/1999/xlink" x="0px" y="0px" width="1024px" height="1024px" viewBox="0 0 1024 1024" enable-background="new 0 0 1024 1024" xml:space="preserve">
  <path class="svgpath" data-index="path_0" fill="#eb4f38" d="M780.053012 376.206244l-45.658899-12.591783 41.189098-23.381523c45.102221-25.603121 62.71025-79.749322 39.328727-120.940466-23.382547-41.191144-78.899978-53.826929-124.003222-28.223808l-41.189098 23.381523 12.591783-45.658899c13.788028-49.996694-12.048407-100.734262-57.70833-113.327068s-93.852528 17.729803-107.640556 67.725474l-12.591783 45.658899-23.381523-41.189098c-25.603121-45.102221-79.749322-62.71025-120.940466-39.328727-41.191144 23.382547-53.826929 78.899978-28.223808 124.003222l23.381523 41.189098-45.658899-12.591783c-49.996694-13.788028-100.734262 12.048407-113.327068 57.70833s17.729803 93.852528 67.725474 107.640556l45.658899 12.591783-41.189098 23.381523c-45.102221 25.603121-62.71025 79.749322-39.328727 120.940466s78.899978 53.826929 124.003222 28.223808l41.189098-23.381523-12.591783 45.658899c-13.788028 49.996694 12.048407 100.734262 57.70833 113.327068 45.659923 12.592806 93.852528-17.729803 107.640556-67.725474l7.359618-26.684756c5.305843 25.851784 13.842263 75.68475 13.842263 128.71657 0 34.80469-16.757662 71.514777-31.543414 103.902418-18.72548 41.020252-34.897811 76.44609-17.427928 102.20987 1.220804 1.799996 3.882424 3.944845 9.635451 3.944845 3.042289 0 7.602142-0.669242 10.443863-2.555196 45.945425-30.506804 52.140521-122.012891 52.140521-207.501938 0-43.208081-4.734838-81.1973-9.391904-108.116393l0.916882 1.614777c25.603121 45.102221 79.749322 62.71025 120.940466 39.328727 41.191144-23.382547 53.826929-78.899978 28.223808-124.003222l-23.381523-41.189098 45.658899 12.591783c49.996694 13.788028 100.734262-12.048407 113.327068-57.70833C860.371292 438.186877 830.049706 389.994272 780.053012 376.206244zM590.437443 529.419741c-23.898293 13.56597-50.973952 20.736277-78.301344 20.736277-57.136302 0-110.135376-30.836309-138.313136-80.476893-20.951171-36.908608-26.275433-79.766718-14.992459-120.679523s37.823444-74.983785 74.732052-95.934956c23.898293-13.564947 50.973952-20.736277 78.302367-20.736277 57.136302 0 110.134353 30.836309 138.312112 80.475869C693.427072 388.996548 666.62873 486.169705 590.437443 529.419741z" />

</svg>
